<svg xmlns="http://www.w3.org/2000/svg" height="1" width="1"><path d="M0 .125v.751h1v-.751h-1zm.37.185l.04.003.032.007.024.01.012.007-.019.054-.037-.015-.051-.007-.044.008-.035.024-.024.042-.008.057.007.052.02.042.034.027.051.01.057-.007.035-.013.017.054-.017.008-.025.008-.034.007-.039.002-.074-.012-.056-.037-.034-.061-.012-.081.013-.081.039-.059.056-.039.071-.012zm.327 0l.04.003.032.007.024.01.012.007-.019.054-.037-.015-.051-.007-.044.008-.035.024-.024.042-.008.057.007.052.02.042.034.027.051.01.057-.007.035-.013.017.054-.017.008-.025.008-.034.007-.039.002-.074-.012-.056-.037-.034-.061-.012-.081.013-.081.039-.059.056-.039.071-.012z" fill="#eee"/></svg>