<svg xmlns="http://www.w3.org/2000/svg" height="30" width="30"><path d="M5.719 8.031v13.938h18.563v-13.938h-18.563zm6.875 3.438c.28 0 .522.017.75.063.228.039.425.073.594.125.169.052.327.129.438.188l.219.125-.344 1c-.156-.098-.395-.197-.688-.281-.286-.091-.599-.125-.938-.125-.293 0-.559.052-.813.156-.254.098-.467.236-.656.438-.182.202-.333.475-.438.781-.104.306-.156.659-.156 1.063 0 .358.047.669.125.969.085.299.206.56.375.781.169.215.365.376.625.5.26.117.573.188.938.188.436 0 .789-.04 1.063-.125.273-.091.507-.172.656-.25l.313 1c-.078.052-.176.104-.313.156-.13.052-.287.104-.469.156-.182.046-.397.099-.625.125-.228.033-.458.031-.719.031-.508 0-.971-.063-1.375-.219s-.751-.388-1.031-.688c-.28-.306-.475-.689-.625-1.125-.15-.436-.219-.934-.219-1.5s.081-1.064.25-1.5c.176-.436.419-.794.719-1.094.299-.306.628-.563 1.031-.719.404-.156.85-.219 1.313-.219zm6.063 0c.28 0 .522.017.75.063.228.039.425.073.594.125.169.052.327.129.438.188l.219.125-.344 1c-.156-.098-.395-.197-.688-.281-.286-.091-.599-.125-.938-.125-.293 0-.559.052-.813.156-.254.098-.467.236-.656.438-.182.202-.333.475-.438.781-.104.306-.156.659-.156 1.063 0 .358.047.669.125.969.085.299.206.56.375.781.169.215.365.376.625.5.26.117.573.188.938.188.436 0 .789-.04 1.063-.125.273-.091.507-.172.656-.25l.313 1c-.078.052-.176.104-.313.156-.13.052-.287.104-.469.156-.182.046-.397.099-.625.125-.228.033-.458.031-.719.031-.508 0-.971-.063-1.375-.219s-.751-.388-1.031-.688c-.28-.306-.475-.689-.625-1.125-.15-.436-.219-.934-.219-1.5s.081-1.064.25-1.5c.176-.436.419-.794.719-1.094.299-.306.628-.563 1.031-.719.404-.156.85-.219 1.313-.219z" fill="#eee"/></svg>